<?xml version="1.0" encoding="utf-8"?>
<!-- Generator: Adobe Illustrator 22.0.1, SVG Export Plug-In . SVG Version: 6.00 Build 0)  -->
<svg version="1.1" id="Layer_1" xmlns="http://www.w3.org/2000/svg" xmlns:xlink="http://www.w3.org/1999/xlink" x="0px" y="0px"
	 viewBox="0 0 293.1 126.4" style="enable-background:new 0 0 293.1 126.4;" xml:space="preserve">
<style type="text/css">
	.st0{fill:#FDB924;}
	.st1{fill:#000100;}
	.st2{fill:#FFFFFF;stroke:#000100;stroke-width:3;stroke-linecap:round;stroke-miterlimit:10;}
	.st3{fill:#FFFFFF;}
</style>
<g>
	<g>
		<path class="st0" d="M102.6,71.2l39.3,4l1.5,4.2c1.4,3.9-1.4,7.9-5.5,8l-35.3,0.8L102.6,71.2z"/>
	</g>
	<g>
		<path class="st0" d="M262,71.2l-39.3,4l-1.5,4.2c-1.4,3.9,1.4,7.9,5.5,8l35.3,0.8L262,71.2z"/>
	</g>
</g>
<g>
	<g>
		<rect x="21.3" y="8.3" class="st0" width="51.5" height="33.1"/>
		<path class="st1" d="M72.8,42.4H21.3c-0.6,0-1-0.4-1-1V8.3c0-0.6,0.4-1,1-1h51.5c0.6,0,1,0.4,1,1v33.1
			C73.8,41.9,73.4,42.4,72.8,42.4z M22.3,40.4h49.5V9.3H22.3V40.4z"/>
	</g>
	<ellipse class="st0" cx="47.2" cy="41.8" rx="6.7" ry="6.9"/>
	<path class="st2" d="M57.2,111.6c7.9-3,13.4-9.8,13.4-19.8V68.4c0-7.1-4.7-15.1-9.1-19.7 M40.5,94.2v21c0,3,2.3,5.4,5,5.4h3.4
		c2.8,0,5-2.4,5-5.4v-21 M31.6,49c-4.4,4.6-7.9,12.4-7.9,19.4v23.4c0,10,5.5,16.8,13.4,19.8 M56.1,52.1
		C56.1,52.1,56.1,52.1,56.1,52.1c1-1,1.9-2.1,2.6-3.4c0,0,0-0.1,0.1-0.1c0.6-1.1,1.7-1.8,2.9-1.8H69c0.9,0,1.7-0.8,1.7-1.8v-7.2
		c0-1-0.7-1.8-1.7-1.8h-2.3c-3.6,0-7-1.5-9.5-4.3c-0.1-0.1-0.1-0.1-0.2-0.2c-0.1-0.1-0.2-0.2-0.3-0.3c-2.4-2.6-5.8-4.2-9.5-4.2
		c-3.8,0-7.3,1.7-9.7,4.5c-0.1,0.1-0.1,0.1-0.2,0.2c-2.5,2.7-5.9,4.3-9.5,4.3h-2.3c-0.9,0-1.7,0.8-1.7,1.8V45c0,1,0.7,1.8,1.7,1.8
		h7.3c1.2,0,2.3,0.7,2.9,1.8c0,0,0,0.1,0.1,0.1c0.7,1.3,1.6,2.4,2.6,3.4c0,0,0,0,0,0 M47.2,34.2c3.7,0,6.7,3.2,6.7,7.2
		s-3,7.2-6.7,7.2c-3.7,0-6.7-3.2-6.7-7.2S43.5,34.2,47.2,34.2z M60.6,84.6v7.2H33.8v-7.2c0-8,6-14.4,13.4-14.4
		C54.6,70.2,60.6,76.7,60.6,84.6z"/>
	<g>
		<line class="st3" x1="14.4" y1="41.8" x2="23.7" y2="41.8"/>
		<path class="st1" d="M23.7,42.8h-9.3c-0.6,0-1-0.4-1-1s0.4-1,1-1h9.3c0.6,0,1,0.4,1,1S24.2,42.8,23.7,42.8z"/>
	</g>
	<g>
		<line class="st3" x1="71" y1="41.8" x2="80.2" y2="41.8"/>
		<path class="st1" d="M80.2,42.8H71c-0.6,0-1-0.4-1-1s0.4-1,1-1h9.3c0.6,0,1,0.4,1,1S80.8,42.8,80.2,42.8z"/>
	</g>
</g>
<path class="st1" d="M182.3,46l-64.8,3.9l-0.1,0c-0.5,0-1-0.2-1.4-0.7c-0.4-0.4-0.5-1-0.3-1.6l6-20c2.6-8.8,8.7-14.2,18.1-16.1
	l0.1,0l4.6-0.6c12.5-1.4,25.2-2.1,37.8-2.1c12.6,0,25.3,0.7,37.8,2.1l4.6,0.6c0.1,0,0.2,0,0.2,0c9.5,2.5,15.5,7.9,18,16l6,20
	c0.2,0.5,0,1.1-0.3,1.6c-0.3,0.4-0.8,0.7-1.4,0.7L182.3,46z M244.8,46.2l-5.3-17.6c-2.1-6.9-7.1-11.4-15.3-13.6l-0.1,0l-4.5-0.6
	c-12.4-1.4-24.9-2.1-37.4-2.1c-12.5,0-25,0.7-37.4,2.1l-4.5,0.6c-8.1,1.6-13.1,6.1-15.4,13.6l-5.3,17.6l62.5-3.8L244.8,46.2z"/>
<path class="st1" d="M229.5,122c-1,0-1.8-0.8-1.8-1.8V105c0-1,0.8-1.8,1.8-1.8h31c0.7,0,1.3-0.4,1.8-1.2l0,18.2c0,1-0.8,1.8-1.8,1.8
	H229.5z M231.2,118.5h27.5v-11.7h-27.5V118.5z"/>
<path class="st1" d="M105.3,122c-1,0-1.8-0.8-1.8-1.8V102c0.5,0.8,1,1.2,1.8,1.2h31c1,0,1.8,0.8,1.8,1.8v15.2c0,1-0.8,1.8-1.8,1.8
	H105.3z M107.1,118.5h27.5v-11.7h-27.5V118.5z"/>
<path class="st1" d="M249.3,51c-0.4,0-0.7-0.1-1.1-0.3l-2.6-2c-0.3-0.2-0.5-0.5-0.6-0.9c-0.2-0.6-0.1-0.8,0.7-2.6
	c0.4-0.8,0.9-1.8,1.4-2.9c1.8-3.4,4.9-5.9,8.7-6.6l5-1c0.4-0.1,0.7-0.1,1.1-0.1c1.3,0,2.6,0.5,3.6,1.3c1.3,1.1,2.1,2.6,2.1,4.3
	l0.1,7c0,0.9-0.7,1.7-1.6,1.8l-16.7,2C249.5,51,249.4,51,249.3,51z M262.1,38.2c-0.1,0-0.3,0-0.4,0l-5,1c-2.7,0.5-5,2.3-6.3,4.7
	l-1.8,3.7l15.8-1.8l-0.1-5.4c0-0.6-0.3-1.2-0.8-1.7C263,38.3,262.5,38.2,262.1,38.2z"/>
<path class="st1" d="M115.3,51c-0.1,0-0.1,0-0.2,0l-16.7-2c-0.9-0.1-1.6-0.9-1.6-1.8l0.1-7c0-1.7,0.8-3.3,2.1-4.3
	c1-0.8,2.3-1.3,3.6-1.3c0.4,0,0.7,0,1.1,0.1l5,1c3.8,0.7,7,3.2,8.7,6.6c0.5,1.1,1.1,2.1,1.4,2.9c0.9,1.8,0.9,2,0.7,2.6
	c-0.1,0.4-0.3,0.7-0.6,0.9l-2.6,2C116,50.9,115.7,51,115.3,51z M102.6,38.2c-0.5,0-1,0.2-1.4,0.5c-0.5,0.4-0.8,1-0.8,1.7l-0.1,5.4
	l15.8,1.8l-1.8-3.7c-1.3-2.5-3.5-4.2-6.3-4.7l-5-1C102.8,38.2,102.7,38.2,102.6,38.2z"/>
<path class="st1" d="M218.6,106.7c-3.9,0-7.3-2.8-8.2-6.6l0-0.2c-0.5-2.4-2.1-4-3.8-4h-48.4c-1.7,0-3.3,1.7-3.8,4l0,0.2
	c-0.8,3.8-4.3,6.6-8.2,6.6h-36c-2.4,0-4.7-1-6.5-2.8c-2-2-3.1-4.8-3-7.7l0.2-23c0-4.1,1.1-8.1,3.2-11.5c0.3-0.5,1-1.7,1-1.7
	c3.5-6,8.4-14.2,14.2-14.3l63.1-3.4h0.2l63,3.5c5.9,0.1,10.8,8.3,14.3,14.3c0.3,0.6,0.7,1.1,1,1.7c2.1,3.5,3.1,7.4,3.2,11.5l0.2,23
	c0,2.9-1.1,5.7-3,7.7c-1.8,1.8-4.1,2.8-6.5,2.8H218.6z M206.5,92.3c3.4,0,6.4,2.8,7.2,6.8l0,0.2c0.5,2.2,2.5,3.8,4.7,3.8h36
	c1.5,0,2.9-0.6,4-1.7c1.3-1.3,2-3.2,2-5.2l-0.2-23c0-3.5-0.9-6.8-2.7-9.7c-0.3-0.6-0.7-1.1-1-1.7c-3.6-6.1-7.7-12.6-11.3-12.6
	l-0.1,0l-63-3.5l-63,3.4c-3.7,0-7.8,6.5-11.4,12.5c-0.4,0.6-0.7,1.2-1,1.8c-1.7,2.9-2.6,6.3-2.7,9.7l-0.2,23c0,2,0.7,3.8,2,5.2
	c1.1,1.1,2.5,1.7,4,1.7h36c2.3,0,4.3-1.6,4.7-3.8l0-0.2c0.9-4,3.9-6.8,7.2-6.8H206.5z"/>
<g>
	<line class="st1" x1="5.5" y1="121.7" x2="284.8" y2="121.7"/>
	<path class="st1" d="M284.8,123.2H5.5c-0.8,0-1.5-0.7-1.5-1.5s0.7-1.5,1.5-1.5h279.3c0.8,0,1.5,0.7,1.5,1.5
		S285.7,123.2,284.8,123.2z"/>
</g>
<path class="st1" d="M226.7,88.3c-2.5-0.1-4.8-1.3-6.2-3.3c-1.4-2.1-1.8-4.6-0.9-7l1.5-4.2c0.2-0.6,0.8-1.1,1.5-1.2l39.3-4
	c0.1,0,0.1,0,0.2,0c0.4,0,0.9,0.2,1.2,0.4c0.4,0.3,0.6,0.8,0.6,1.3l0.1,17c0,0.5-0.2,0.9-0.5,1.3c-0.3,0.3-0.8,0.5-1.2,0.5
	L226.7,88.3z M224,75.9l-1.1,3.2c-0.5,1.3-0.3,2.7,0.5,3.8c0.8,1.1,2,1.8,3.4,1.8l33.5,0.7l-0.1-13.3L224,75.9z"/>
<path class="st1" d="M102.6,89c-0.5,0-0.9-0.2-1.2-0.5c-0.3-0.3-0.5-0.8-0.5-1.3l0.1-17c0-0.5,0.2-1,0.6-1.3
	c0.3-0.3,0.7-0.4,1.2-0.4c0.1,0,0.1,0,0.2,0l39.3,4c0.7,0.1,1.3,0.5,1.5,1.2l1.5,4.2c0.8,2.4,0.5,4.9-0.9,7
	c-1.4,2.1-3.7,3.3-6.2,3.3L102.6,89z M104.3,85.5l33.5-0.7c1.4,0,2.6-0.7,3.4-1.8c0.8-1.1,1-2.5,0.5-3.8l-1.1-3.2l-36.2-3.7
	L104.3,85.5z"/>
<path class="st1" d="M162,87.8c-2.9,0-5.4-1.8-6.2-4.4l-2.6-11.8c-0.1-0.4,0-0.9,0.3-1.3c0.3-0.4,0.8-0.6,1.4-0.6h54.6
	c0.5,0,1,0.2,1.4,0.6c0.3,0.4,0.4,0.8,0.3,1.3l-2.6,11.7l0,0.1c-0.7,2.6-3.3,4.4-6.2,4.4H162z M159.3,82.6L159.3,82.6
	c0.4,1.2,1.5,2,2.8,2h40.6c1.3,0,2.4-0.8,2.7-1.9l0-0.1l2.1-9.7h-50.4L159.3,82.6z"/>
</svg>
