<svg xmlns="http://www.w3.org/2000/svg" width="34" height="31" viewBox="0 0 34 31">
    <g fill="none" fill-rule="evenodd">
        <path stroke="#FDB924" stroke-width="1.38" d="M1.108 29.489h31.356V1.266H1.108z"/>
        <path fill="#FDB924" d="M31.91 8.84H1.661A.671.671 0 0 1 1 8.157c0-.375.297-.68.662-.68h30.247c.366 0 .663.305.663.68a.672.672 0 0 1-.663.681M5.474 6.421c-.737 0-1.338-.617-1.338-1.375 0-.757.6-1.375 1.338-1.375.737 0 1.338.618 1.338 1.375 0 .758-.601 1.375-1.338 1.375M9.79 6.421c-.738 0-1.338-.617-1.338-1.375 0-.757.6-1.375 1.338-1.375.738 0 1.338.618 1.338 1.375 0 .758-.6 1.375-1.338 1.375"/>
        <path stroke="#FDB924" stroke-linecap="round" stroke-width="1.424" d="M11.128 13.724h15.906M11.128 16.213h7.082M4.768 14.514l1.503 1.611 2.181-3.446M11.128 20.51h15.906M11.128 22.998h7.082M4.768 21.3l1.503 1.611 2.181-3.446"/>
    </g>
</svg>
