<svg xmlns="http://www.w3.org/2000/svg" width="40" height="34" viewBox="0 0 40 34">
    <g fill="none" fill-rule="evenodd">
        <g stroke="#FDB924" stroke-linecap="round" stroke-linejoin="round" stroke-width="1.4">
            <path d="M15.727 29l4.773-4.8 4.773 4.8zM3 21h35M16.727 11.4c0 3.534-2.849 6.4-6.363 6.4C6.849 17.8 4 14.934 4 11.4 4 7.866 6.85 5 10.364 5s6.363 2.866 6.363 6.4z"/>
            <path d="M10.364 8.2v3.2l3.181 1.6"/>
        </g>
        <path fill="#FDB924" fill-rule="nonzero" d="M32.597 11.684c1.864 0 3.381-1.5 3.381-3.342C35.978 6.499 34.461 5 32.597 5h-2.784-.001a.593.593 0 0 0-.597.59V12.864h-.596a.593.593 0 0 0-.597.59c0 .325.267.589.597.589h.596v3.342c0 .326.267.59.597.59.33 0 .597-.264.597-.59v-3.342h2.188c.33 0 .597-.264.597-.59a.593.593 0 0 0-.597-.59h-2.188v-1.18h2.188zm0-5.504h.019c1.198.01 2.169.976 2.169 2.162 0 1.192-.982 2.162-2.188 2.162h-2.188V6.18h2.188z"/>
    </g>
</svg>
