<?xml version="1.0" encoding="UTF-8"?>
<svg width="38px" height="38px" viewBox="0 0 38 38" version="1.1" xmlns="http://www.w3.org/2000/svg" xmlns:xlink="http://www.w3.org/1999/xlink">
    <!-- Generator: Sketch 51.2 (57519) - http://www.bohemiancoding.com/sketch -->
    <title>Artboard 1 copy</title>
    <desc>Created with Sketch.</desc>
    <defs></defs>
    <g id="Desktop" stroke="none" stroke-width="1" fill="none" fill-rule="evenodd">
        <g id="5309_UK_G4B_New_Page_Desktop_B" transform="translate(-123.000000, -1343.000000)">
            <g id="Artboard-1-copy" transform="translate(124.000000, 1344.000000)">
                <path d="M19.4113547,25.2975896 L24.2164811,22.7094653 C25.3464778,22.0998658 27.5642285,21.1801191 27.5747892,23.4580963 L28.3879644,22.9019704 C30.6585186,21.3191506 32.3904763,22.4420971 31.5561796,24.6238217 C35.6009343,21.6399924 37.0371919,25.4152317 35.2313092,26.345673 L26.275821,32.0780476 L22.4739627,34.505751 C19.7915405,36.2169076 16.2431395,36.2489918 15.2398714,35.6393922 C9.57932688,34.1635197 7.9424157,32.7518155 3,33.3934992" id="Shape" stroke="#FAB621" stroke-width="1.44" stroke-linecap="round" stroke-linejoin="round"></path>
                <path d="M0,22.6670746 L5.90502314,20.3973241 C7.11195503,19.8675586 8.50096842,19.8675586 9.7079003,20.3973241 L12.8769646,22.646899 C17.281964,25.764023 17.6411246,24.987264 22.8383901,25.2798096 C23.9898167,25.350424 24.7398286,27.1157855 22.8383901,27.8118424 C17.9897217,29.9302761 15.0002377,28.9820248 10.5846748,26.8030644" id="Shape" stroke="#FAB621" stroke-width="1.44" stroke-linecap="round" stroke-linejoin="round"></path>
                <path d="M18.4471617,0.000148464452 C22.2941986,-0.0212244439 25.7743315,2.27974131 27.2613618,5.82784914 C28.7483921,9.37595698 27.9487092,13.4706411 25.2359893,16.1985352 C22.5232695,18.9264293 18.433133,19.7489169 14.8768211,18.2816656 C11.3205093,16.8144142 9.00020783,13.3471293 9.00014846,9.50000575 C8.98600914,6.9761789 9.98233591,4.55162905 11.7669663,2.76698597 C13.5515967,0.982342883 15.9761294,-0.013990955 18.4999383,0.000148464452 L18.4471617,0.000148464452 Z" id="Shape" stroke="#FAB621" stroke-width="1.44" stroke-linecap="round" stroke-linejoin="round"></path>
                <path d="M15.2267744,9.03514842 C15.0798867,8.95297965 14.9918571,8.79075284 15.0005953,8.61833069 C14.999382,8.45313056 15.0863441,8.30068856 15.2267744,8.22184553 C15.2783709,8.19099919 15.3350554,8.17031664 15.3939502,8.16084781 L15.944647,8.16084781 L15.944647,6.91039462 C15.9513476,6.48268621 16.0416633,6.06079805 16.2101615,5.67010772 C16.3467101,5.32039805 16.5585913,5.00747888 16.8296954,4.75514197 C17.0832914,4.50129049 17.3799895,4.29795438 17.70491,4.15533109 C18.3753574,3.94822297 19.0897417,3.94822297 19.7601891,4.15533109 C20.0296423,4.2353908 20.2851876,4.35890519 20.5173972,4.52131739 C20.6346122,4.60138832 20.7349606,4.70512879 20.8124134,4.82630597 C20.8798879,4.92779428 20.914333,5.04886629 20.9107521,5.1719597 C20.9121487,5.33763104 20.8523586,5.49761307 20.7435763,5.61927629 C20.6558142,5.72075053 20.5310427,5.77971698 20.3993908,5.78193687 C20.3247278,5.79727596 20.2478747,5.79727596 20.1732117,5.78193687 C20.0833031,5.74831252 19.9974962,5.70395878 19.9175311,5.64977515 C19.8334924,5.58811677 19.7446878,5.53371297 19.6520165,5.48711457 L19.3963359,5.37528542 C19.3243449,5.31415966 19.2450175,5.26290409 19.160323,5.22279113 L18.8653068,5.22279113 C18.433031,5.19677256 18.0106575,5.36329199 17.70491,5.68027401 C17.3974035,6.0559301 17.2454764,6.54172848 17.2820535,7.03239006 L17.2820535,8.12018267 L18.6686294,8.12018267 C18.7275242,8.1296515 18.7842087,8.15033404 18.8358052,8.18118039 C18.9717238,8.27560573 19.0532501,8.43378843 19.0532501,8.60308126 C19.0532501,8.77237409 18.9717238,8.93055679 18.8358052,9.02498213 C18.7842087,9.05582848 18.7275242,9.07651102 18.6686294,9.08597985 L17.2623858,9.08597985 L17.2623858,11.8207108 L20.5173972,11.8207108 C20.5924292,11.8336314 20.665284,11.8575961 20.7337424,11.8918748 C20.8131491,11.9436381 20.8803491,12.0131097 20.9304198,12.0952005 C20.9794619,12.192285 21.0031871,12.3009051 20.9992569,12.4103554 C21.0046263,12.5199386 20.9808168,12.6289451 20.9304198,12.7255103 C20.8861027,12.8121689 20.8175675,12.8830208 20.7337424,12.928836 C20.6670778,12.9675652 20.5934528,12.9917832 20.5173972,13 L20.1928795,13 L16.7510245,13 L16.4363406,13 C16.3203423,12.9814152 16.213341,12.924322 16.1314906,12.8373394 C16.048246,12.7505998 15.9903098,12.6413802 15.9643147,12.5221846 C15.9643147,12.4001891 15.9643147,12.2985263 15.9643147,12.1968634 L15.9643147,9.10631242 L15.4136179,9.10631242 C15.3472234,9.09629824 15.2835836,9.07205946 15.2267744,9.03514842 Z" id="Shape" fill="#FAB621" fill-rule="nonzero"></path>
            </g>
        </g>
    </g>
</svg>