<?xml version="1.0" encoding="utf-8"?>
<!-- Generator: Adobe Illustrator 16.0.0, SVG Export Plug-In . SVG Version: 6.00 Build 0)  -->
<!DOCTYPE svg PUBLIC "-//W3C//DTD SVG 1.1//EN" "http://www.w3.org/Graphics/SVG/1.1/DTD/svg11.dtd">
<svg version="1.1" id="Layer_1" xmlns="http://www.w3.org/2000/svg" xmlns:xlink="http://www.w3.org/1999/xlink" x="0px" y="0px"
	 width="46px" height="40px" viewBox="0 0 46 40" enable-background="new 0 0 46 40" xml:space="preserve">
<path fill="#FFC42E" d="M0,25.38C0,12.127,8.484,3.791,11.932,0.649c1.061-0.82,1.989-0.957,2.917,0.137l1.987,1.912
	c0.796,0.958,0.664,2.323-0.396,3.143c-1.458,1.229-8.882,7.105-9.015,16.668c0.265,0,1.857-0.682,4.11-0.682
	c4.772,0,8.883,3.963,8.883,9.019S16.306,40,10.871,40C6.098,40,0,36.584,0,25.38 M25.453,25.38c0-13.253,8.484-21.59,11.931-24.731
	c1.062-0.82,2.122-0.957,3.049,0.137l1.988,1.912c0.797,0.958,0.531,2.323-0.396,3.143c-1.458,1.229-8.883,7.105-9.015,16.668
	c0.132,0,1.856-0.682,4.109-0.682c4.773,0,8.882,3.963,8.882,9.019S41.892,40,36.456,40C31.683,40,25.453,36.584,25.453,25.38"/>
</svg>
