<?xml version="1.0" encoding="utf-8"?>
<!-- Generator: Adobe Illustrator 19.1.0, SVG Export Plug-In . SVG Version: 6.00 Build 0)  -->
<!DOCTYPE svg PUBLIC "-//W3C//DTD SVG 1.1//EN" "http://www.w3.org/Graphics/SVG/1.1/DTD/svg11.dtd">
<svg version="1.1" xmlns="http://www.w3.org/2000/svg" xmlns:xlink="http://www.w3.org/1999/xlink" x="0px" y="0px"
	 viewBox="0 0 82 91" enable-background="new 0 0 82 91" xml:space="preserve">
<g id="background">
</g>
<g id="text__x26__icons">
	<g>
		<path fill="#FDB924" d="M27.1,35.9c1.8-1.3,4.1-1.8,6.3-1.4c2,0.3,3.8,1.4,5.1,3c0.6,0.7,1.6,0.8,2.2,0.2c0.7-0.6,0.8-1.6,0.2-2.2
			c-1.8-2.2-4.3-3.6-7-4.1c-3.1-0.5-6.1,0.2-8.7,2s-4.2,4.5-4.7,7.5c-0.4,2.4-0.1,4.9,1,7.1c0.3,0.6,0.8,0.9,1.4,0.9
			c0.2,0,0.5-0.1,0.7-0.2c0.8-0.4,1.1-1.3,0.7-2.1c-0.8-1.6-1-3.4-0.7-5.1C24,39.1,25.2,37.2,27.1,35.9z"/>
		<path fill="#333333" d="M27.5,65c0.8,0,1.4-0.8,1.4-1.5S28.3,62,27.5,62h-5.4c-0.7,0-1.4,0.8-1.4,1.5s0.6,1.5,1.4,1.5H27.5z"/>
		<path fill="#333333" d="M79.8,62.7l-9.2-16.9c-1-1.9-3.1-3.1-5.4-3.1c-1.2,0-2.4,0.3-3.4,1c-1,0.6-1.7,1.4-2.2,2.4
			c-1.9-0.9-4.3-0.8-6.1,0.3c-1,0.6-1.9,1.4-2.4,2.4c-0.6-0.3-1-0.5-2-0.5v-8.4c0,0.6-0.3,1-0.8,1.2c0.5-0.2,0.8-0.7,0.8-1.2v0v-0.2
			l0,0V6.5C49,2.7,46.2,0,42.5,0H7.1C3.4,0,0,2.7,0,6.5v59.8C0,70,3.4,73,7.1,73h20.3c0.4,2,1.6,3.5,3.5,4.4l25.3,11.9
			c2.4,1.1,4.8,1.7,7.3,1.7c6.2,0,12.2-3.7,15.7-9.5C82.7,75.5,82.9,68.5,79.8,62.7z M47,40.9C47.1,40.9,47.1,40.9,47,40.9
			C47.1,40.9,47.1,40.9,47,40.9z M47.2,41c0.2,0.1,0.4,0.2,0.7,0.2C47.7,41.2,47.4,41.1,47.2,41z M3,6.5C3,4.2,4.9,2,7.1,2h35.3
			C44.7,2,47,4.2,47,6.5V9H3V6.5z M3,12h44v27.9c0,0.1-0.2,0.2-0.2,0.3l1.9-0.3L47,40.2V40l0,0v8.5c-1,0.2-1.3,0.4-1.8,0.7
			c-0.5,0.3-1.1,0.7-1.5,1.2l-5.3-8.4c-1.2-1.9-3.2-3-5.4-3c-1.2,0-2.3,0.3-3.3,1c-1.4,0.9-2.4,2.3-2.8,3.9
			c-0.4,1.7-0.1,3.3,0.8,4.8L31,54H3V12z M3,66.3V57h29.7l6.6,10.5c-1.3-0.6-2.8-0.8-3.9-0.8c-2.5,0-5.3,0.6-6.9,1.6
			c-0.3,0.2-0.5,0.2-0.6,0.5c-0.2,0.4-0.4,1.2-0.4,1.2H7.1C4.9,70,3,68.5,3,66.3z M76.4,79.9c-2.9,4.9-7.9,8-13,8c-2,0-4-0.5-6-1.4
			L32.2,74.5c-1.4-0.7-2.1-2.3-1.7-3.8c1.2-0.6,3.1-1,4.8-1c1.1,0,2,0.2,2.6,0.4l4.8,2.3c0.6,0.3,1.4,0.1,1.9-0.4
			c0.5-0.5,0.5-1.3,0.2-1.9L30.3,46.9c-0.9-1.5-0.5-3.4,1-4.4c0.5-0.3,1.1-0.5,1.6-0.5c1.1,0,2.1,0.6,2.7,1.5l6.7,10.8
			c0.3,0.5,1,0.8,1.6,0.7c0.6-0.1,1.1-0.6,1.3-1.2c0.2-0.9,0.7-1.6,1.4-2c1.3-0.8,3.1-0.5,4.1,0.7c0.4,0.5,1.1,0.7,1.7,0.5
			c0.6-0.2,1.1-0.7,1.1-1.4c0.1-1,0.6-2,1.5-2.5c1.3-0.8,3.1-0.5,4.1,0.7c0.4,0.5,1.1,0.7,1.7,0.5c0.6-0.2,1-0.8,1.1-1.4
			c0.1-1,0.6-1.9,1.5-2.5c0.5-0.3,1.1-0.5,1.7-0.5c1.1,0,2.1,0.6,2.6,1.4L77,64.2C79.6,69,79.4,74.9,76.4,79.9z"/>
	</g>
	<g>
		<path fill="#FDB924" d="M13.5,46.9c-0.7,0-1.4-0.5-1.5-1.3c-0.3-2.1-0.3-4.2,0.1-6.3c0.4-2.6,1.4-5.1,2.8-7.4
			c1.4-2.2,3.2-4.2,5.4-5.7c1.7-1.2,3.6-2.1,5.5-2.8c2.5-0.8,5.1-1.1,7.8-0.9c0.6,0,1.1,0.1,1.7,0.2c2.4,0.4,4.6,1.2,6.7,2.4
			c0.7,0.4,1,1.3,0.5,2c-0.4,0.7-1.3,1-2,0.5c-1.8-1-3.7-1.7-5.7-2.1c-0.5-0.1-1-0.1-1.4-0.2c-2.3-0.2-4.5,0.1-6.6,0.7
			c-1.7,0.5-3.3,1.3-4.7,2.4c-1.9,1.3-3.4,3-4.6,4.9c-1.2,1.9-2,4-2.4,6.3c-0.3,1.8-0.3,3.6-0.1,5.3c0.1,0.8-0.4,1.6-1.3,1.7
			C13.7,46.9,13.6,46.9,13.5,46.9z"/>
	</g>
</g>
<g id="popup_coupon">
</g>
<g id="header">
</g>
</svg>
