<?xml version="1.0" encoding="utf-8"?>
<!-- Generator: Adobe Illustrator 19.1.0, SVG Export Plug-In . SVG Version: 6.00 Build 0)  -->
<!DOCTYPE svg PUBLIC "-//W3C//DTD SVG 1.1//EN" "http://www.w3.org/Graphics/SVG/1.1/DTD/svg11.dtd">
<svg version="1.1" xmlns="http://www.w3.org/2000/svg" xmlns:xlink="http://www.w3.org/1999/xlink" x="0px" y="0px"
	 viewBox="0 0 75 67" enable-background="new 0 0 75 67" xml:space="preserve">
<g id="background">
</g>
<g id="text__x26__icons">
	<g>
		<path fill="#333333" d="M75,1.6C75,0.7,74.3,0,73.4,0H1.6C0.7,0,0,0.7,0,1.6v63.8C0,66.3,0.7,67,1.6,67h71.8
			c0.9,0,1.6-0.7,1.6-1.6V1.6z M72,3v12H3V3H72z M3,64V18h69v46H3z"/>
		<g>
			<path fill="#333333" d="M10.5,12.5c-1.8,0-3.2-1.4-3.2-3.2c0-1.8,1.4-3.2,3.2-3.2s3.2,1.4,3.2,3.2C13.7,11.1,12.3,12.5,10.5,12.5
				z"/>
		</g>
		<g>
			<path fill="#333333" d="M20.8,12.5c-1.8,0-3.2-1.4-3.2-3.2c0-1.8,1.4-3.2,3.2-3.2c1.8,0,3.2,1.4,3.2,3.2
				C24,11.1,22.6,12.5,20.8,12.5z"/>
		</g>
		<g>
			<path fill="#333333" d="M10.5,33c-0.4,0-0.8-0.2-1.1-0.5c-0.3-0.3-0.5-0.7-0.5-1.1v-6.5c0-0.9,0.7-1.6,1.6-1.6h53.8
				c0.9,0,1.6,0.7,1.6,1.6v6.5c0,0.9-0.7,1.6-1.6,1.6L10.5,33z M12.1,26.5v3.4l50.6,0v-3.4H12.1z"/>
		</g>
		<g>
			<path fill="#FDB924" d="M64.3,45.7H10.5c-0.9,0-1.6-0.7-1.6-1.6v-6.5c0-0.9,0.7-1.6,1.6-1.6h53.8c0.9,0,1.6,0.7,1.6,1.6v6.5
				C65.9,45,65.2,45.7,64.3,45.7z M12.1,42.6h50.6v-3.4H12.1V42.6z"/>
		</g>
		<g>
			<path fill="#333333" d="M36.1,58.2H10.5c-0.9,0-1.6-0.7-1.6-1.6v-6.5c0-0.9,0.7-1.6,1.6-1.6h25.6c0.9,0,1.6,0.7,1.6,1.6v6.5
				C37.7,57.5,37,58.2,36.1,58.2z M12.1,55.1h22.4v-3.4H12.1V55.1z"/>
		</g>
	</g>
</g>
<g id="popup_coupon">
</g>
<g id="header">
</g>
</svg>
