<?xml version="1.0" encoding="utf-8"?>
<!-- Generator: Adobe Illustrator 19.1.0, SVG Export Plug-In . SVG Version: 6.00 Build 0)  -->
<!DOCTYPE svg PUBLIC "-//W3C//DTD SVG 1.1//EN" "http://www.w3.org/Graphics/SVG/1.1/DTD/svg11.dtd">
<svg version="1.1" xmlns="http://www.w3.org/2000/svg" xmlns:xlink="http://www.w3.org/1999/xlink" x="0px" y="0px"
	 viewBox="0 0 76.1 75.4" enable-background="new 0 0 76.1 75.4" xml:space="preserve">
<g id="background">
</g>
<g id="text__x26__icons">
	<g>
		<path fill="#FDB924" d="M38,75.4c-0.4,0-0.8-0.2-1.1-0.5L22.6,60.5c-0.6-0.6-0.6-1.6,0-2.2s1.6-0.6,2.2,0L36.5,70V31.7
			c0-0.9,0.7-1.6,1.6-1.6s1.6,0.7,1.6,1.6V70l11.6-11.7c0.6-0.6,1.6-0.6,2.2,0c0.6,0.6,0.6,1.6,0,2.2L39.2,74.9
			C38.9,75.2,38.5,75.4,38,75.4z"/>
		<path fill="#333333" d="M58.2,48.7h-8.3c-0.9,0-1.6-0.7-1.6-1.6s0.7-1.6,1.6-1.6h8.3c8.1,0,14.7-6.6,14.7-14.7
			s-6.6-14.7-14.7-14.7c-1,0-2,0.1-3,0.3c-0.8,0.2-1.5-0.3-1.8-1c-2.9-7.5-10-12.3-18-12.3c-10.6,0-19.3,8.6-19.3,19.3l0,0.3
			c0,0.4-0.2,0.9-0.5,1.2c-0.3,0.3-0.7,0.5-1.2,0.4c-0.2,0-0.5,0-0.7,0c-5.9,0-10.6,4.8-10.6,10.6s4.8,10.6,10.6,10.6H25
			c0.9,0,1.6,0.7,1.6,1.6s-0.7,1.6-1.6,1.6H13.8C6.2,48.7,0,42.5,0,34.9c0-7.4,5.8-13.4,13.1-13.8C13.7,9.4,23.5,0,35.5,0
			c8.9,0,16.8,5.1,20.4,13.1c0.8-0.1,1.6-0.2,2.3-0.2c9.9,0,17.9,8,17.9,17.9S68.1,48.7,58.2,48.7z"/>
	</g>
</g>
<g id="popup_coupon">
</g>
<g id="header">
</g>
</svg>
